<?xml version="1.0" standalone="no"?>
<!DOCTYPE svg PUBLIC "-//W3C//DTD SVG 20010904//EN"
 "http://www.w3.org/TR/2001/REC-SVG-20010904/DTD/svg10.dtd">
<svg version="1.0" xmlns="http://www.w3.org/2000/svg"
 width="560.000000pt" height="560.000000pt" viewBox="0 0 560.000000 560.000000"
 preserveAspectRatio="xMidYMid meet">
<metadata>
Created by potrace 1.11, written by Peter Selinger 2001-2013
</metadata>
<g transform="translate(0.000000,560.000000) scale(0.100000,-0.100000)"
fill="#000000" stroke="none">
<path d="M773 5549 c-132 -86 -236 -212 -302 -369 -27 -62 -59 -167 -67 -220
-3 -19 -9 -51 -13 -70 -21 -99 -19 -379 3 -520 2 -14 7 -47 11 -75 9 -67 18
-80 57 -81 18 -1 63 -3 101 -4 37 -2 69 -1 72 1 2 3 -3 25 -12 49 -22 61 -21
258 2 360 9 41 19 86 21 99 3 13 18 65 35 117 29 92 30 94 12 126 -14 26 -18
54 -17 128 1 83 6 110 42 216 22 66 58 157 80 202 23 45 40 82 39 82 -1 0 -30
-18 -64 -41z"/>
<path d="M371 5401 c-199 -132 -315 -291 -357 -486 -14 -68 -15 -230 -2 -290
6 -22 12 -51 14 -65 13 -73 91 -261 115 -275 7 -5 52 -10 100 -12 l87 -3 -28
53 c-28 52 -44 108 -57 202 -13 93 -6 438 11 532 2 10 7 45 11 78 6 51 12 65
43 96 49 48 72 77 72 89 0 6 5 10 10 10 6 0 10 4 10 10 0 5 13 32 30 60 16 27
26 50 22 50 -5 0 -41 -22 -81 -49z"/>
<path d="M4810 5401 c1 -3 23 -35 50 -71 28 -36 56 -77 63 -92 6 -16 16 -28
20 -28 5 0 6 -4 2 -9 -3 -5 -1 -12 5 -16 9 -6 45 -110 55 -164 7 -35 7 -160 0
-191 -3 -14 -8 -35 -11 -48 -16 -76 -68 -175 -141 -266 l-52 -65 0 -116 c1
-128 0 -127 70 -104 47 15 53 17 59 16 10 -2 96 62 127 95 17 18 47 61 65 94
18 34 54 92 79 130 60 90 81 144 85 226 4 77 -6 114 -51 181 -31 48 -32 50
-20 100 31 136 -14 240 -125 290 -25 12 -49 22 -55 23 -58 12 -91 16 -152 18
-40 2 -73 0 -73 -3z"/>
<path d="M1131 5149 c-74 -29 -205 -149 -250 -228 -62 -110 -68 -125 -97 -226
-8 -27 -23 -94 -29 -130 -9 -48 -14 -295 -8 -346 l5 -36 71 -2 c40 -2 85 -3
101 -4 l29 -2 3 75 c2 85 20 168 70 323 35 106 36 127 9 127 -31 0 -47 31 -41
80 9 73 87 254 154 358 8 12 13 22 11 21 -2 0 -15 -5 -28 -10z"/>
<path d="M5487 5018 c-6 -66 -8 -75 -27 -148 -31 -122 -122 -324 -166 -367 -8
-8 -19 -24 -25 -35 -37 -68 -175 -204 -345 -337 -6 -5 -43 -28 -82 -51 l-72
-43 0 -154 0 -153 34 0 c19 0 74 11 122 26 206 59 369 183 557 420 77 99 77
279 -2 434 -27 52 -27 56 -10 73 9 10 34 51 54 91 56 111 55 224 -3 289 -24
27 -29 21 -35 -45z"/>
<path d="M1329 4753 c-174 -140 -263 -309 -283 -539 -2 -23 -1 -46 3 -52 6
-10 163 -21 170 -12 2 3 -2 24 -8 47 -22 80 -16 164 19 272 23 73 80 198 120
262 34 56 29 61 -21 22z"/>
<path d="M1432 4494 c-41 -44 -116 -185 -126 -235 -2 -13 -9 -37 -15 -52 -6
-15 -13 -41 -16 -57 -5 -30 -1 -32 115 -56 14 -2 31 -7 38 -9 11 -4 16 7 13
28 -2 10 -3 141 -2 147 1 3 3 41 6 86 3 71 13 113 40 177 13 30 -9 18 -53 -29z"/>
<path d="M4554 4162 c-316 -305 -530 -457 -642 -454 -18 0 -30 -3 -27 -7 27
-45 27 -571 0 -711 -3 -13 -7 -42 -10 -65 -3 -22 -8 -47 -10 -55 -2 -8 -7 -30
-10 -49 -21 -124 -84 -80 -110 79 -3 19 -8 42 -10 50 -5 20 -16 105 -20 155
-2 22 -6 65 -10 95 -8 62 -11 102 -19 309 -4 80 -8 147 -10 149 -5 4 -93 -57
-168 -117 -32 -25 -95 -84 -141 -131 -71 -73 -116 -124 -228 -258 -10 -13 -19
-26 -19 -30 0 -3 -8 -15 -19 -26 -42 -47 -229 -336 -222 -345 1 -2 -1 -7 -6
-10 -4 -3 -14 -16 -21 -29 -11 -20 -9 -32 21 -95 56 -121 145 -365 163 -452
24 -108 32 -156 39 -226 2 -25 5 -52 7 -60 8 -38 -97 -3 -142 47 -74 84 -170
268 -231 446 -19 54 -37 97 -41 95 -13 -4 -548 -537 -548 -546 0 -4 19 -14 43
-21 74 -22 306 -149 327 -180 3 -4 12 -11 21 -16 19 -10 81 -60 142 -114 63
-55 298 -293 314 -317 18 -27 41 -23 137 19 63 27 243 135 321 191 103 74 142
103 153 114 8 7 22 18 32 23 19 10 19 12 1 53 -29 68 -69 248 -86 385 -2 20
-7 55 -11 77 -3 22 -7 51 -9 65 -3 21 -16 133 -17 150 -1 20 8 17 54 -22 71
-59 175 -163 223 -223 22 -28 42 -52 45 -55 17 -15 100 -152 120 -197 26 -58
28 -58 100 -10 60 40 155 137 212 217 53 75 174 197 233 236 19 12 22 21 18
47 -10 62 -2 413 12 498 2 13 6 62 10 109 3 47 8 99 10 115 4 32 15 144 20
210 2 22 6 60 9 85 14 115 18 158 21 190 2 19 6 55 9 80 3 25 8 65 11 89 2 24
7 61 10 82 3 22 7 56 10 77 2 20 9 74 15 120 6 45 8 87 5 92 -3 6 -2 10 2 10
5 0 9 10 10 23 0 12 4 48 7 80 4 31 6 57 4 57 -2 0 -48 -44 -104 -98z"/>
<path d="M141 4103 c98 -101 127 -133 168 -183 20 -25 40 -48 44 -51 4 -3 18
-19 30 -36 12 -17 54 -73 93 -124 90 -119 252 -361 281 -419 7 -14 17 -32 23
-40 63 -94 256 -475 342 -675 72 -167 168 -414 168 -432 0 -17 -15 -15 205
-19 507 -10 745 -9 749 1 8 22 -9 135 -39 260 -3 11 -7 29 -9 40 -2 11 -9 41
-16 66 l-12 46 -141 -1 c-164 -1 -237 6 -304 29 -70 24 -106 49 -130 92 -12
21 -23 40 -25 43 -1 3 7 19 20 37 18 25 34 34 80 44 53 11 222 14 267 5 11 -2
47 -7 80 -10 33 -4 68 -9 77 -12 10 -3 18 -2 18 3 0 4 -50 121 -112 258 l-113
251 -175 0 c-150 0 -225 4 -300 17 -54 10 -134 44 -160 68 -22 22 -30 38 -30
65 0 132 174 151 472 53 51 -17 101 -35 112 -41 15 -8 18 -7 13 5 -7 20 -169
241 -179 245 -5 2 -8 10 -8 17 0 7 -4 15 -8 17 -5 2 -36 41 -70 88 -34 47 -65
90 -69 95 -5 6 -24 31 -42 56 -35 49 -34 49 -166 65 -11 1 -42 5 -70 9 -27 3
-68 8 -90 10 -22 2 -56 6 -75 9 -35 6 -112 16 -160 21 -14 2 -47 6 -75 9 -27
3 -66 8 -85 11 -19 2 -60 7 -90 11 -30 4 -66 8 -80 10 -14 2 -50 6 -80 9 -30
3 -66 8 -80 10 -27 5 -108 16 -155 21 -16 1 -59 6 -95 9 l-65 7 66 -69z"/>
<path d="M5529 4043 c-75 -106 -201 -205 -355 -280 -87 -43 -251 -102 -324
-117 -14 -3 -43 -10 -65 -15 -22 -6 -42 -9 -45 -8 -3 1 -6 -43 -7 -97 -3 -107
1 -116 46 -111 14 2 55 7 91 10 36 4 74 9 85 12 11 2 32 5 47 8 33 4 176 42
203 54 126 52 214 110 257 170 22 31 25 45 23 96 -3 55 25 181 54 250 20 47
30 75 27 75 -1 0 -18 -21 -37 -47z"/>
<path d="M5515 3587 c-44 -48 -102 -91 -170 -125 -121 -61 -192 -85 -317 -107
-16 -3 -40 -7 -55 -10 -16 -3 -80 -8 -143 -11 -63 -4 -118 -9 -122 -13 -4 -3
-9 -41 -11 -84 -3 -59 0 -82 10 -93 23 -22 117 -45 190 -46 69 -1 190 9 203
17 4 2 21 7 39 10 30 5 99 44 129 72 7 7 17 13 21 13 11 0 145 131 180 177 40
53 78 136 87 191 8 50 -1 52 -41 9z"/>
<path d="M4666 3061 c-3 -4 -6 -65 -8 -134 -2 -123 -2 -126 22 -147 48 -42
139 -65 280 -70 72 -3 78 -1 84 25 8 30 94 118 189 193 37 30 67 56 67 58 0 3
-4 3 -9 0 -21 -14 -275 -22 -336 -11 -114 20 -204 47 -252 75 -18 11 -35 15
-37 11z"/>
<path d="M4631 2623 c-1 -42 -4 -80 -6 -84 -3 -4 2 -12 10 -19 8 -7 15 -10 15
-7 0 3 19 -1 43 -8 104 -31 235 -7 273 50 31 47 18 57 -79 57 -110 0 -201 30
-230 76 -17 26 -24 9 -26 -65z"/>
<path d="M1377 1984 c-1 -1 -35 -4 -75 -8 -40 -3 -76 -7 -80 -10 -4 -2 -23 -7
-42 -10 -19 -3 -60 -13 -90 -23 -30 -9 -57 -17 -60 -18 -10 -3 -47 -19 -110
-47 -36 -16 -67 -28 -69 -28 -2 1 -7 -2 -10 -7 -3 -5 -28 -22 -55 -37 -59 -35
-202 -142 -252 -191 -45 -44 -46 -70 -11 -222 19 -78 113 -209 177 -247 l33
-19 -7 52 c-3 28 -9 75 -12 104 -3 28 -7 58 -9 64 -5 16 31 35 116 62 108 35
163 45 259 45 148 0 246 -39 340 -135 l47 -48 91 -6 91 -5 35 72 c68 141 160
264 234 313 54 35 94 39 147 14 107 -50 209 -234 270 -486 9 -40 22 -73 29
-74 6 0 27 -2 46 -5 55 -7 140 -11 145 -5 3 2 20 6 37 8 53 5 131 33 193 67
l57 33 -42 49 c-100 117 -319 318 -430 394 -19 13 -41 30 -48 37 -8 8 -28 21
-45 30 -18 9 -34 19 -37 22 -7 10 -136 83 -192 109 -112 52 -137 62 -209 86
-98 32 -194 54 -266 61 -64 7 -192 12 -196 9z m-452 -272 c-57 -56 -86 -75
-156 -104 l-86 -36 11 32 c6 17 36 56 66 86 60 60 114 85 189 89 l46 2 -70
-69z"/>
<path d="M1916 1539 c-39 -33 -180 -243 -222 -329 -1 -3 48 -4 109 -3 166 3
269 -23 396 -99 l63 -38 -6 57 c-9 85 -14 107 -42 191 -57 169 -120 241 -220
247 -38 3 -50 -1 -78 -26z"/>
<path d="M3380 1345 c-38 -41 -120 -93 -203 -129 -43 -19 -80 -36 -83 -38 -2
-3 15 -25 38 -50 195 -205 340 -394 351 -459 6 -33 0 -42 -40 -58 -85 -34
-192 18 -336 164 -65 66 -218 257 -242 302 -1 1 -19 -6 -41 -17 -45 -22 -167
-55 -237 -63 -26 -3 -51 -8 -55 -11 -5 -3 -35 -8 -68 -11 -92 -11 -93 -11 -99
-16 -3 -3 16 -21 43 -39 131 -94 281 -270 384 -455 65 -114 158 -327 158 -360
0 -12 4 -14 18 -6 11 6 30 12 43 15 134 27 613 236 849 369 25 14 62 35 84 47
117 64 373 235 509 341 72 56 73 65 7 75 -115 19 -611 187 -778 265 -46 22
-88 39 -93 39 -5 0 -9 5 -9 10 0 6 -5 10 -11 10 -6 0 -43 21 -82 47 -40 27
-75 49 -78 51 -3 1 -16 -9 -29 -23z"/>
<path d="M1449 1137 c-8 -18 -14 -34 -14 -37 0 -3 -27 -57 -59 -120 -64 -128
-157 -274 -230 -363 -26 -32 -46 -60 -44 -62 2 -2 18 -6 36 -10 60 -10 137
-61 217 -144 27 -28 52 -51 55 -51 3 0 47 31 99 70 52 38 99 70 105 70 6 1
-12 12 -39 25 -140 68 -150 232 -31 490 19 42 44 88 56 104 11 16 17 32 13 34
-5 3 -32 8 -62 12 -30 4 -62 8 -72 10 -12 2 -21 -7 -30 -28z"/>
<path d="M1691 1084 c-17 -19 -31 -41 -31 -49 0 -8 -5 -15 -10 -15 -5 0 -9 -3
-9 -7 4 -26 -3 -63 -14 -75 -34 -35 -77 -115 -83 -153 -9 -61 2 -96 42 -144
35 -41 120 -98 130 -88 3 3 -1 18 -9 34 -23 44 -41 144 -33 186 13 70 91 116
154 91 17 -7 32 -11 32 -9 0 4 68 -30 122 -62 26 -14 61 -52 77 -82 25 -46 22
-63 -19 -104 -22 -21 -38 -43 -34 -48 3 -5 23 -9 45 -9 74 0 136 49 175 137
13 30 24 59 24 66 0 7 -15 21 -34 31 -83 44 -151 139 -163 227 l-8 54 -85 23
c-47 12 -120 24 -162 27 l-76 4 -31 -35z"/>
<path d="M709 505 c-66 -21 -130 -81 -169 -162 -28 -57 -34 -78 -33 -129 2
-94 35 -155 97 -182 28 -13 28 -12 22 15 -36 162 -4 224 117 228 53 2 60 5 87
37 16 20 47 43 68 51 65 26 120 5 208 -80 34 -32 80 -70 103 -86 43 -28 81
-79 81 -109 0 -18 -47 -66 -78 -81 -10 -4 3 -5 28 -2 56 7 138 65 124 87 -3 4
-1 8 5 8 8 0 19 43 27 108 2 17 -11 32 -59 66 -34 24 -75 50 -92 57 -16 8 -32
16 -35 19 -12 15 -102 71 -158 100 -125 63 -250 83 -343 55z"/>
</g>
</svg>
