<?xml version="1.0" standalone="no"?>
<!DOCTYPE svg PUBLIC "-//W3C//DTD SVG 20010904//EN"
 "http://www.w3.org/TR/2001/REC-SVG-20010904/DTD/svg10.dtd">
<svg version="1.0" xmlns="http://www.w3.org/2000/svg"
 width="1000.000000pt" height="1000.000000pt" viewBox="0 0 1000.000000 1000.000000"
 preserveAspectRatio="xMidYMid meet">
<metadata>
Created by potrace 1.11, written by Peter Selinger 2001-2013
</metadata>
<g transform="translate(0.000000,1000.000000) scale(0.100000,-0.100000)"
fill="#000000" stroke="none">
<path d="M1485 9670 c-3 -5 -15 -10 -26 -10 -10 0 -19 -4 -19 -10 0 -5 -5 -10
-11 -10 -13 0 -179 -111 -212 -141 -128 -119 -297 -320 -297 -354 0 -8 -4 -15
-9 -17 -11 -4 -91 -167 -91 -185 0 -7 -5 -13 -12 -13 -6 0 -9 -2 -6 -6 3 -3
-3 -27 -13 -55 -38 -99 -80 -277 -83 -346 -1 -13 -5 -23 -9 -23 -5 0 -7 -8 -6
-17 1 -10 0 -20 -1 -23 -1 -3 -4 -25 -5 -50 -2 -25 -4 -45 -5 -45 -4 0 -8
-127 -9 -255 0 -135 5 -295 9 -295 1 0 3 -13 5 -30 1 -16 6 -57 10 -90 4 -33
9 -72 11 -88 7 -54 42 -218 48 -224 2 -2 53 -6 113 -9 61 -2 149 -6 196 -8 48
-2 87 -2 87 0 0 2 -8 18 -18 36 -54 97 -72 357 -37 535 2 11 6 36 9 54 3 19 8
45 11 59 3 14 8 36 10 50 4 22 11 52 30 123 3 9 7 25 9 35 19 76 89 278 99
289 12 12 7 35 -15 72 -12 19 -24 40 -25 46 -1 5 -7 28 -13 50 -19 72 -12 230
15 315 3 10 8 29 11 42 6 27 9 38 16 58 3 8 20 56 38 105 46 126 128 307 143
313 4 2 5 8 1 13 -3 5 0 9 7 9 7 0 9 3 6 6 -4 4 2 19 12 33 24 34 43 71 37 71
-3 0 -8 -4 -11 -10z"/>
<path d="M760 9420 c-30 -16 -63 -32 -72 -36 -10 -3 -18 -10 -18 -15 0 -5 -5
-9 -10 -9 -10 0 -84 -45 -106 -65 -6 -5 -22 -17 -34 -25 -78 -51 -216 -186
-288 -280 -23 -30 -47 -60 -52 -67 -6 -7 -10 -17 -10 -22 0 -5 -6 -16 -14 -24
-17 -16 -86 -162 -86 -180 0 -7 -4 -17 -9 -22 -5 -6 -19 -53 -32 -105 -31
-129 -34 -363 -7 -495 10 -49 20 -102 23 -116 6 -31 52 -172 70 -214 31 -72
86 -183 107 -220 22 -36 28 -40 68 -42 296 -14 303 -14 289 4 -8 10 -17 20
-21 23 -29 23 -91 190 -113 305 -19 103 -30 262 -29 410 1 125 12 358 19 393
1 9 6 51 10 92 4 41 9 84 11 95 2 11 6 40 9 65 3 25 8 56 11 70 3 14 7 39 9
55 1 17 3 32 4 35 0 3 15 14 32 24 36 21 86 75 141 150 21 28 42 56 48 63 5 7
10 17 10 23 0 5 3 10 8 10 4 0 12 10 18 23 6 12 25 46 42 75 17 28 30 52 29
52 -1 -1 -27 -14 -57 -30z"/>
<path d="M8580 9364 c0 -5 25 -35 55 -66 30 -32 55 -61 55 -65 0 -5 13 -21 28
-38 15 -16 37 -46 48 -65 10 -19 22 -37 25 -40 3 -3 22 -36 42 -73 42 -79 80
-184 101 -275 32 -139 10 -369 -47 -504 -9 -21 -13 -38 -9 -38 4 0 3 -4 -3 -8
-5 -4 -21 -29 -35 -57 -34 -69 -101 -175 -112 -175 -4 0 -8 -6 -8 -13 0 -6
-33 -47 -74 -91 l-74 -78 0 -193 c-1 -164 2 -194 15 -199 8 -3 19 -4 24 -1 4
3 25 8 46 10 65 7 230 72 261 102 7 7 17 13 21 13 11 0 133 121 160 159 28 40
81 141 81 156 0 6 19 31 43 57 55 61 77 87 77 93 0 2 14 24 30 49 26 38 73
130 75 146 0 3 3 10 6 15 25 41 39 190 26 266 -13 76 -65 181 -113 232 -35 37
-36 39 -25 80 21 77 24 92 27 173 4 123 -30 213 -110 286 -28 26 -183 112
-196 108 -3 0 -25 4 -50 9 -90 21 -107 23 -247 28 -79 3 -143 2 -143 -3z"/>
<path d="M2050 8959 c-8 -5 -53 -30 -100 -55 -47 -26 -87 -49 -90 -53 -3 -4
-18 -15 -34 -25 -90 -58 -240 -232 -314 -366 -31 -57 -81 -172 -87 -199 -2 -9
-11 -36 -20 -61 -15 -43 -42 -153 -51 -212 -2 -16 -6 -43 -9 -60 -11 -72 -17
-169 -18 -293 -1 -130 9 -294 18 -303 5 -6 125 -12 269 -15 l88 -2 4 110 c5
129 9 168 16 181 3 5 11 36 18 69 13 62 115 379 145 450 9 21 13 41 9 43 -5 1
-34 15 -64 30 l-55 27 1 70 c2 115 80 310 217 538 58 95 81 138 74 136 -1 0
-9 -4 -17 -10z"/>
<path d="M9809 8819 c-4 -77 -16 -163 -34 -245 -9 -38 -17 -76 -18 -84 -4 -22
-27 -102 -34 -120 -4 -8 -7 -17 -8 -20 -1 -3 -5 -14 -9 -25 -4 -11 -13 -33
-19 -50 -23 -64 -127 -268 -139 -273 -5 -2 -8 -8 -8 -13 0 -11 -42 -72 -52
-77 -5 -2 -8 -8 -8 -14 0 -5 -6 -16 -12 -23 -7 -8 -35 -44 -63 -81 -65 -88
-280 -305 -375 -380 -41 -32 -76 -62 -78 -66 -2 -5 -10 -8 -17 -8 -7 0 -15 -4
-17 -9 -4 -12 -213 -151 -227 -151 -6 0 -11 -3 -11 -8 0 -4 -8 -12 -19 -17
-62 -33 -107 -53 -114 -52 -5 1 -13 -6 -18 -15 -10 -18 -14 -502 -4 -518 7
-11 118 -1 175 15 8 2 29 7 45 10 37 7 36 7 110 29 33 9 67 20 75 23 8 3 17 7
20 8 125 43 346 173 468 274 73 61 174 163 232 234 25 31 49 56 54 57 5 0 17
10 28 23 11 12 30 34 42 48 50 56 101 162 114 239 8 43 7 194 -1 235 -3 17 -8
41 -12 55 -3 14 -8 32 -10 40 -2 8 -4 16 -5 18 -2 1 -3 5 -4 10 -5 27 -45 116
-85 191 l-30 53 25 27 c13 14 24 29 24 33 0 3 6 13 13 20 48 50 116 191 134
275 9 43 4 180 -7 191 -1 1 -3 5 -4 10 -8 33 -63 113 -99 141 -15 12 -17 11
-18 -10z"/>
<path d="M2436 8315 c-8 -8 -18 -15 -21 -15 -7 0 -89 -58 -134 -95 -54 -44
-155 -154 -198 -215 -45 -64 -127 -210 -117 -210 2 0 -3 -11 -12 -25 -9 -14
-13 -25 -9 -25 4 0 3 -6 -3 -12 -27 -34 -72 -255 -75 -368 l-2 -75 48 0 c26 0
47 -2 47 -5 0 -3 33 -5 73 -5 39 0 86 -3 103 -6 45 -9 62 3 46 33 -40 74 -51
229 -26 354 19 99 20 104 39 154 9 25 17 50 19 55 19 66 129 281 200 390 51
78 60 108 22 70z"/>
<path d="M2662 7929 c-47 -18 -145 -118 -196 -199 -41 -63 -114 -216 -131
-270 -1 -3 -12 -37 -24 -77 -12 -39 -24 -80 -26 -90 -2 -10 -4 -18 -5 -18 -1
0 -4 -12 -5 -27 -4 -28 -7 -26 75 -44 39 -8 63 -13 90 -20 25 -6 37 -8 100
-19 l35 -7 -2 209 c-1 114 3 235 8 268 5 33 12 75 14 94 11 71 44 151 78 189
23 24 22 25 -11 11z"/>
<path d="M8284 7426 c-18 -18 -66 -62 -106 -97 -39 -35 -81 -73 -92 -84 -12
-11 -50 -45 -86 -75 -36 -30 -67 -58 -70 -61 -8 -10 -131 -111 -210 -174 -41
-33 -76 -63 -78 -67 -2 -5 -10 -8 -18 -8 -8 0 -14 -4 -14 -8 0 -4 -13 -16 -30
-25 -16 -10 -35 -23 -42 -30 -22 -21 -210 -144 -250 -163 -21 -10 -38 -21 -38
-26 0 -4 -8 -8 -18 -8 -10 0 -27 -6 -38 -14 -27 -19 -146 -57 -187 -60 -17 -1
-40 2 -49 6 -18 8 -24 -2 -18 -27 1 -5 4 -26 6 -45 2 -19 6 -55 9 -80 30 -262
34 -606 10 -830 -3 -30 -8 -77 -10 -104 -2 -27 -6 -61 -9 -75 -3 -14 -8 -46
-11 -71 -6 -49 -27 -153 -52 -265 -16 -73 -43 -115 -71 -110 -9 2 -22 4 -28 4
-8 1 -57 83 -59 101 -1 3 -6 21 -13 40 -6 19 -13 46 -16 60 -2 14 -8 43 -14
65 -6 22 -14 63 -17 90 -4 28 -9 61 -12 75 -2 14 -6 41 -8 60 -2 19 -6 49 -8
65 -4 26 -8 59 -22 205 -6 61 -15 162 -21 245 -6 82 -7 114 -19 365 -4 80 -9
147 -10 148 -4 4 -66 -29 -75 -39 -3 -3 -23 -16 -45 -29 -22 -13 -44 -28 -50
-32 -5 -5 -41 -32 -80 -60 -38 -29 -75 -57 -82 -63 -6 -5 -30 -26 -54 -45
-122 -100 -371 -345 -361 -354 3 -3 -2 -6 -11 -6 -10 0 -17 -3 -17 -7 0 -5
-17 -26 -37 -48 -20 -22 -68 -78 -106 -125 -38 -47 -73 -86 -78 -88 -5 -2 -9
-10 -9 -17 0 -8 -6 -18 -12 -22 -16 -10 -97 -117 -207 -273 -44 -63 -85 -120
-91 -127 -5 -7 -10 -15 -10 -18 0 -3 -22 -38 -48 -78 -27 -40 -65 -100 -85
-134 l-36 -62 54 -108 c29 -59 63 -129 74 -155 12 -27 30 -67 40 -90 48 -107
127 -325 123 -340 -1 -5 3 -8 9 -8 5 0 7 -5 4 -10 -4 -6 -1 -17 5 -25 7 -8 10
-15 7 -15 -4 0 0 -18 8 -40 8 -22 14 -42 15 -45 0 -3 0 -6 1 -7 0 -2 2 -10 4
-18 2 -8 9 -33 15 -55 17 -66 50 -228 54 -265 12 -104 18 -157 21 -177 4 -24
-3 -27 -60 -23 -158 9 -372 277 -529 660 -15 36 -33 79 -41 95 -14 29 -76 198
-90 243 -3 12 -10 22 -15 22 -5 0 -34 -24 -65 -54 -31 -30 -98 -92 -148 -138
-50 -45 -109 -101 -132 -123 -38 -36 -217 -203 -290 -269 -16 -15 -82 -76
-145 -136 -176 -165 -214 -200 -225 -201 -9 -1 137 -54 175 -64 8 -2 17 -4 20
-5 3 -1 8 -2 13 -1 4 0 7 -4 7 -9 0 -6 8 -10 18 -10 9 0 32 -9 50 -20 18 -11
36 -20 41 -20 19 0 306 -167 356 -207 6 -5 42 -30 80 -58 63 -43 140 -102 171
-130 7 -5 20 -17 31 -25 160 -128 335 -291 510 -474 62 -64 100 -96 114 -96
33 0 162 46 259 93 47 22 87 41 90 41 3 1 21 11 41 24 20 12 41 22 48 22 6 0
11 5 11 10 0 6 9 10 19 10 11 0 21 3 23 8 2 4 37 27 78 52 41 24 96 59 122 77
26 18 52 33 57 33 5 0 16 6 23 13 7 7 65 49 128 92 169 115 231 165 224 178
-4 7 -12 19 -19 27 -18 24 -91 268 -100 340 -2 14 -5 25 -6 25 -1 0 -3 9 -4
20 -2 11 -8 45 -15 75 -6 30 -13 69 -15 85 -3 17 -7 41 -10 55 -2 13 -7 40
-10 60 -3 20 -7 45 -9 57 -3 12 -8 43 -12 70 -3 26 -8 57 -10 68 -2 11 -6 45
-10 75 -3 30 -7 66 -10 80 -3 14 -7 45 -9 70 -2 25 -5 45 -5 45 -4 0 -7 51 -3
57 2 4 9 3 16 -2 7 -6 48 -38 92 -73 117 -91 102 -78 285 -249 30 -27 163
-178 205 -232 62 -79 147 -214 188 -298 23 -48 47 -87 53 -88 21 0 130 60 195
109 89 68 240 219 287 289 22 31 52 71 67 87 100 109 139 148 210 208 44 37
90 76 102 87 12 11 26 20 31 20 5 0 17 9 27 20 10 11 24 20 32 20 11 0 12 9 6
43 -10 54 -9 439 1 582 4 61 9 133 11 160 2 28 6 79 10 115 3 36 8 88 10 115
5 74 15 185 20 225 8 58 14 111 20 180 3 36 8 81 10 100 3 19 8 60 11 90 3 30
7 69 9 85 2 17 6 55 9 86 3 31 7 69 10 85 3 16 8 54 11 84 3 30 7 71 10 90 2
19 7 58 10 85 4 28 8 61 10 75 2 14 6 48 9 75 3 28 8 66 11 85 2 19 7 55 10
80 3 25 8 61 11 81 6 50 15 118 19 154 5 46 16 127 22 160 3 17 7 46 9 65 3
34 16 131 31 228 3 26 7 62 7 79 1 18 3 33 6 33 3 0 6 9 6 20 0 26 -1 26 -42
-14z"/>
<path d="M140 7303 c0 -3 17 -21 38 -40 132 -124 330 -326 429 -439 28 -32 63
-72 78 -89 14 -16 38 -46 53 -64 15 -19 37 -46 49 -59 12 -13 41 -49 65 -80
24 -32 45 -59 48 -62 9 -8 104 -133 122 -160 22 -32 144 -202 155 -215 5 -5
24 -35 43 -65 19 -30 43 -64 52 -74 10 -11 18 -25 18 -32 0 -6 7 -17 15 -24 8
-7 21 -24 28 -39 8 -14 52 -87 99 -161 47 -74 96 -155 109 -179 13 -24 29 -51
34 -60 93 -149 475 -894 475 -926 0 -5 56 -129 70 -156 4 -8 20 -47 35 -85 15
-38 33 -82 40 -99 42 -97 55 -128 55 -135 0 -4 8 -25 17 -46 9 -22 18 -48 20
-59 2 -11 8 -22 13 -23 6 -2 8 -7 5 -11 -2 -5 2 -16 9 -26 13 -17 37 -19 357
-21 189 -2 568 -5 842 -7 l499 -5 -5 77 c-3 42 -8 87 -11 101 -4 14 -8 39 -11
55 -2 17 -7 41 -10 55 -3 14 -8 34 -10 45 -2 11 -6 29 -8 40 -3 11 -15 58 -26
105 -23 91 -25 97 -40 148 -5 17 -7 32 -4 32 3 0 0 7 -7 15 -7 8 -9 15 -5 15
4 0 2 7 -5 15 -7 8 -16 13 -20 10 -4 -2 -69 -7 -145 -10 -75 -3 -140 -6 -143
-7 -4 0 -9 0 -12 1 -3 1 -59 3 -125 5 -66 2 -149 9 -185 15 -86 15 -163 32
-175 40 -5 3 -18 7 -29 8 -64 10 -206 122 -206 163 0 10 -4 22 -10 25 -15 9
-3 73 20 102 11 14 20 22 20 18 0 -5 8 -1 18 7 34 30 159 52 307 52 128 0 302
-9 352 -18 11 -3 40 -5 64 -7 24 -1 49 -5 54 -8 6 -3 27 -6 47 -7 21 0 40 -3
44 -6 3 -4 12 -4 19 -2 11 4 8 16 -11 51 -13 25 -24 52 -24 59 0 8 -4 14 -9
14 -5 0 -13 10 -17 23 -6 21 -66 146 -192 407 -31 63 -57 117 -57 120 -1 3
-22 46 -46 97 l-44 92 -143 -4 c-78 -2 -147 -7 -152 -10 -6 -3 -10 -2 -10 4 0
6 -11 6 -29 1 -16 -4 -32 -6 -34 -3 -3 2 -74 6 -158 8 -85 2 -163 6 -175 9
-11 2 -47 7 -79 10 -57 7 -135 22 -165 33 -8 4 -26 8 -40 10 -14 2 -29 8 -34
14 -6 5 -18 9 -28 9 -10 0 -18 5 -18 10 0 6 -7 10 -15 10 -8 0 -15 4 -15 9 0
5 -9 11 -19 14 -11 2 -31 22 -45 44 -75 114 -1 239 159 268 59 11 200 5 295
-11 25 -4 55 -8 68 -8 12 -1 22 -4 22 -7 0 -3 13 -6 30 -7 16 0 35 -4 42 -9 7
-4 22 -9 33 -11 48 -7 351 -104 387 -123 11 -6 21 -9 24 -7 3 3 -47 70 -149
198 -7 8 -28 35 -46 60 -19 25 -43 53 -53 63 -10 10 -18 21 -18 25 0 4 -13 21
-28 39 -50 57 -62 73 -62 80 0 3 -6 11 -13 17 -8 6 -63 74 -123 151 -60 77
-136 174 -169 215 -33 42 -67 86 -75 98 -17 24 -29 27 -202 47 -24 2 -65 7
-93 11 -27 3 -66 7 -85 9 -19 2 -51 6 -70 9 -19 3 -64 8 -100 11 -36 3 -76 8
-90 11 -14 2 -50 6 -80 9 -30 2 -64 6 -75 9 -12 2 -52 7 -90 11 -39 3 -81 8
-95 10 -53 7 -146 18 -175 21 -16 1 -48 4 -70 8 -22 3 -67 8 -100 11 -33 4
-73 8 -90 10 -16 2 -52 7 -80 10 -27 3 -104 12 -170 20 -125 15 -252 30 -345
41 -30 3 -71 8 -90 10 -19 2 -57 6 -85 9 -27 3 -63 8 -80 10 -59 10 -125 14
-125 8z"/>
<path d="M9925 7164 c-10 -20 -26 -44 -34 -54 -9 -10 -31 -36 -49 -58 -48 -59
-138 -144 -217 -205 -73 -56 -218 -147 -234 -147 -5 0 -11 -4 -13 -8 -3 -8
-180 -92 -265 -125 -24 -9 -60 -24 -80 -32 -21 -9 -47 -17 -58 -20 -11 -2 -47
-13 -80 -23 -68 -23 -140 -44 -170 -49 -11 -2 -38 -8 -60 -14 -22 -6 -47 -12
-55 -14 -8 -1 -48 -8 -88 -15 l-73 -13 1 -179 c1 -98 5 -176 9 -174 4 3 45 8
92 12 46 3 100 8 119 9 19 2 51 5 70 9 19 3 58 8 85 11 28 3 67 10 87 14 20 5
39 7 42 4 2 -3 13 0 24 6 10 5 37 12 58 15 21 2 39 5 39 6 0 2 5 3 55 13 14 3
57 16 95 27 39 12 76 22 83 23 6 0 12 4 12 9 0 4 8 8 18 8 9 0 30 7 46 15 15
8 32 15 36 15 11 0 184 96 211 117 58 45 142 137 159 175 15 34 16 45 6 72
-15 36 -11 95 10 181 1 6 4 21 7 35 5 24 32 109 44 140 4 8 7 18 8 23 2 4 4 9
5 12 1 3 3 8 4 13 0 4 18 49 40 100 39 95 45 129 11 66z"/>
<path d="M9868 6342 c-25 -26 -59 -58 -75 -71 -37 -32 -161 -111 -173 -111 -6
0 -10 -4 -10 -9 0 -15 -251 -122 -345 -147 -5 -2 -46 -13 -90 -25 -44 -11 -89
-23 -100 -25 -11 -2 -31 -6 -45 -9 -14 -3 -38 -7 -55 -9 -16 -3 -46 -7 -65
-11 -84 -16 -264 -28 -402 -28 -60 0 -108 -1 -109 -1 -2 -3 -12 -182 -13 -235
l-1 -64 46 -24 c45 -22 125 -46 199 -58 43 -8 262 -7 310 0 19 3 44 6 55 6 11
0 65 9 120 20 55 12 105 22 110 23 22 4 204 118 256 160 14 12 41 32 60 46 32
24 203 192 224 221 6 8 23 31 38 52 34 44 103 189 112 232 3 17 8 44 11 60 3
17 7 36 9 43 9 25 -22 9 -67 -36z"/>
<path d="M8329 5433 c-1 -16 -3 -53 -5 -83 -13 -209 -11 -316 5 -343 39 -68
193 -125 386 -142 28 -2 50 -4 50 -5 0 -1 51 -3 113 -6 102 -4 112 -3 112 13
0 36 54 103 166 204 55 50 221 180 272 214 23 15 42 29 42 31 0 3 -12 2 -27 0
-124 -22 -481 -29 -598 -13 -180 25 -339 69 -447 123 l-68 34 -1 -27z"/>
<path d="M8271 4787 c-8 -174 -6 -252 7 -253 6 -1 13 -2 15 -4 1 -1 11 -3 22
-5 11 -2 34 -6 50 -10 17 -4 38 -7 48 -8 9 -1 17 -4 17 -7 0 -12 275 -3 310
10 63 24 108 59 134 103 48 81 46 82 -111 80 -76 -1 -160 3 -188 8 -27 6 -61
12 -75 15 -52 10 -151 64 -188 103 l-37 39 -4 -71z"/>
<path d="M2416 3643 c-3 -3 -22 -7 -43 -8 -53 -4 -146 -15 -174 -21 -13 -3
-40 -7 -59 -8 -19 -2 -42 -6 -50 -10 -14 -5 -132 -36 -155 -40 -24 -5 -156
-50 -215 -74 -133 -54 -351 -168 -437 -229 -17 -13 -36 -23 -42 -23 -5 0 -14
-6 -18 -13 -4 -7 -28 -25 -53 -41 -52 -34 -194 -146 -258 -203 -23 -21 -24
-27 -19 -100 15 -220 98 -417 231 -548 41 -40 121 -105 130 -105 4 0 14 -7 23
-15 8 -8 19 -13 24 -10 11 7 12 35 1 35 -4 0 -7 11 -7 25 1 23 -7 102 -20 185
-3 19 -7 56 -9 83 -3 26 -8 52 -11 57 -3 6 -5 10 -3 10 2 0 28 9 58 21 139 52
311 101 358 102 6 0 12 3 12 6 0 9 75 13 240 15 143 1 227 -7 280 -27 8 -3 33
-11 55 -17 46 -14 168 -76 205 -105 14 -11 55 -50 92 -87 l67 -68 118 -6 c65
-4 138 -7 163 -8 l45 -1 36 70 c71 141 191 329 252 398 91 101 125 133 181
169 104 67 187 74 290 24 46 -23 142 -106 181 -157 53 -70 112 -175 165 -294
20 -45 69 -175 75 -200 1 -5 5 -17 8 -25 3 -8 8 -26 12 -40 40 -154 54 -202
58 -206 2 -2 30 -9 63 -15 98 -18 298 -15 394 6 14 3 37 7 52 10 15 3 40 10
55 16 15 6 38 13 51 15 27 5 173 72 220 101 l33 20 -48 53 c-174 193 -490 478
-653 590 -19 13 -37 27 -40 30 -11 15 -290 200 -290 193 0 -5 -4 -3 -8 3 -8
12 -59 43 -167 100 -125 67 -222 113 -330 159 -69 29 -285 105 -285 99 0 -2
-10 1 -22 7 -12 7 -29 13 -38 14 -18 2 -68 14 -90 22 -8 3 -28 7 -44 9 -17 3
-46 8 -65 14 -20 5 -59 12 -87 15 -28 3 -61 8 -74 10 -13 2 -64 7 -114 11 -50
3 -93 8 -95 10 -2 2 -12 -1 -22 -7 -11 -5 -19 -6 -19 -2 0 9 -87 9 -96 0 -3
-3 -18 -1 -34 3 -16 4 -31 6 -34 3z m-711 -409 c-171 -161 -188 -173 -275
-199 -3 -1 -22 -9 -44 -18 -21 -9 -43 -17 -48 -17 -5 0 -21 -6 -36 -14 -43
-22 -72 -28 -72 -17 0 33 53 114 113 175 103 102 222 152 372 155 l60 1 -70
-66z"/>
<path d="M3498 2939 c-21 -3 -48 -14 -60 -25 -34 -30 -78 -74 -78 -79 0 -3 -8
-13 -17 -23 -10 -10 -28 -30 -40 -45 -27 -32 -218 -322 -257 -391 l-28 -48 63
8 c118 15 312 10 439 -12 19 -3 44 -7 56 -8 11 -1 25 -5 31 -9 6 -4 23 -8 37
-9 14 -1 26 -6 26 -11 0 -5 7 -7 15 -4 8 4 17 2 20 -3 4 -6 14 -10 23 -10 20
0 221 -98 240 -117 7 -7 17 -13 22 -13 5 0 16 -7 24 -16 15 -15 41 -11 32 5
-3 4 -8 30 -12 57 -3 27 -8 58 -11 69 -2 11 -6 31 -8 45 -6 38 -12 60 -29 125
-9 33 -19 67 -21 75 -10 40 -38 108 -76 186 -48 96 -129 186 -199 221 -53 27
-140 41 -192 32z"/>
<path d="M6032 2571 c-65 -61 -73 -67 -145 -110 -86 -52 -227 -118 -302 -141
-81 -26 -84 -18 64 -168 117 -119 170 -176 319 -341 13 -13 35 -40 50 -59 15
-19 34 -43 43 -53 9 -11 27 -35 40 -54 13 -19 27 -35 32 -35 4 0 7 -5 7 -12 0
-6 6 -19 14 -27 25 -29 71 -126 72 -153 1 -34 -20 -54 -82 -77 -84 -31 -215
-8 -316 55 -21 13 -42 24 -47 24 -5 0 -11 3 -13 8 -1 4 -38 33 -80 65 -82 62
-229 204 -306 296 -26 31 -54 63 -62 71 -9 8 -31 35 -50 60 -19 25 -37 47 -40
50 -4 3 -32 40 -63 83 -51 69 -77 92 -77 69 0 -16 -127 -62 -241 -88 -35 -8
-64 -14 -114 -24 -27 -6 -61 -13 -75 -15 -14 -3 -38 -7 -55 -9 -35 -5 -99 -15
-135 -22 -14 -3 -38 -6 -55 -8 -137 -16 -198 -25 -203 -30 -1 -2 34 -29 80
-59 46 -31 95 -66 109 -79 15 -13 38 -32 52 -43 94 -75 280 -275 362 -389 11
-16 25 -33 30 -40 14 -15 139 -207 148 -226 4 -8 16 -28 26 -45 56 -87 237
-473 245 -521 4 -25 28 -44 45 -35 9 5 18 8 21 8 3 -1 25 4 50 12 44 14 391
127 420 137 8 3 15 5 15 4 0 -1 25 10 55 23 30 14 57 25 60 25 13 2 271 105
385 154 202 87 414 189 615 295 181 96 215 115 218 124 2 5 10 9 19 9 8 0 27
9 43 20 15 11 38 24 51 30 25 10 61 31 69 40 10 11 132 80 141 80 5 0 9 4 9 9
0 5 9 13 20 16 11 3 26 12 33 18 7 7 28 21 47 31 19 11 40 24 45 28 6 5 39 27
75 50 36 23 67 45 68 50 2 4 8 8 13 8 11 0 113 71 117 82 2 5 8 8 13 8 10 0
90 58 142 103 18 15 28 27 22 26 -5 -1 -17 0 -25 4 -8 3 -46 13 -85 22 -38 9
-86 21 -105 26 -19 5 -44 11 -55 14 -33 6 -232 61 -365 100 -69 20 -134 39
-145 42 -11 3 -27 7 -35 10 -8 3 -19 7 -25 8 -47 12 -426 145 -500 176 -214
88 -273 114 -290 126 -11 7 -27 13 -37 13 -10 0 -18 3 -18 8 0 4 -29 21 -65
37 -36 17 -65 33 -65 38 0 4 -5 7 -11 7 -6 0 -46 24 -89 54 l-79 54 -49 -47z"/>
<path d="M2606 2255 c-9 -13 -16 -27 -16 -31 0 -8 -127 -261 -157 -314 -55
-96 -158 -263 -176 -285 -4 -5 -37 -50 -73 -100 -36 -49 -70 -91 -75 -93 -5
-2 -9 -10 -9 -17 0 -8 -8 -20 -17 -27 -16 -12 -80 -86 -110 -127 -11 -15 -9
-17 15 -19 28 -3 67 -9 67 -12 0 -1 10 -3 23 -6 76 -14 259 -140 363 -251 42
-45 71 -67 80 -64 15 6 159 101 169 111 3 3 39 28 80 55 133 88 128 80 68 100
-264 86 -300 351 -105 778 20 42 36 80 36 84 -1 3 3 9 8 12 5 3 23 31 39 61
16 30 32 57 37 58 4 2 7 9 7 15 0 6 7 19 17 29 24 27 22 28 -97 43 -116 14
-135 16 -147 20 -6 2 -19 -7 -27 -20z"/>
<path d="M3104 2190 c-80 -13 -165 -135 -177 -251 -3 -23 -14 -46 -33 -65 -30
-29 -111 -136 -107 -141 1 -1 -5 -20 -14 -40 -53 -129 -5 -267 127 -365 45
-33 167 -98 173 -92 3 3 -8 31 -23 62 -63 132 -83 289 -46 362 19 35 65 89 78
90 4 0 19 5 35 12 66 27 83 27 159 3 256 -81 429 -218 433 -343 1 -21 -30 -55
-123 -135 -15 -13 -24 -27 -20 -30 14 -8 87 -19 119 -18 108 5 216 86 277 206
12 22 26 43 32 47 6 4 8 8 4 8 -4 0 0 16 8 35 21 51 18 60 -26 81 -22 10 -40
22 -40 27 0 4 -5 7 -11 7 -12 0 -102 72 -132 105 -59 65 -72 83 -98 136 -16
32 -29 67 -29 78 0 11 -5 23 -10 26 -8 5 -8 11 0 20 6 7 7 16 2 19 -5 3 -7 18
-4 35 4 30 -1 34 -55 46 -10 2 -45 12 -78 21 -33 9 -69 18 -80 19 -11 2 -33 7
-50 10 -42 10 -71 14 -145 20 -110 11 -114 11 -146 5z"/>
<path d="M1280 1170 c-111 -34 -205 -102 -266 -192 -16 -24 -31 -45 -34 -48
-3 -3 -21 -39 -40 -80 -31 -69 -33 -83 -33 -170 0 -73 5 -108 22 -151 31 -81
107 -150 176 -161 23 -3 23 0 0 92 -25 97 -16 198 20 246 38 49 102 76 190 79
38 1 80 -2 92 -6 18 -7 25 -2 43 26 32 52 104 110 158 127 117 38 236 -8 374
-145 41 -41 95 -84 121 -97 26 -13 47 -27 47 -32 0 -4 6 -8 13 -8 20 0 109
-92 124 -129 29 -69 4 -114 -97 -171 l-55 -32 61 6 c161 14 270 123 292 292
10 82 6 96 -36 122 -56 34 -75 46 -89 57 -7 6 -18 15 -25 20 -25 19 -118 66
-140 70 -12 3 -24 9 -27 13 -12 18 -156 107 -241 149 -30 14 -56 30 -58 35 -2
4 -9 8 -15 8 -7 0 -53 16 -102 35 -50 20 -91 35 -93 35 -1 -1 -34 6 -74 15
-90 20 -235 18 -308 -5z"/>
</g>
</svg>
