<?xml version="1.0" standalone="no"?>
<!DOCTYPE svg PUBLIC "-//W3C//DTD SVG 20010904//EN"
 "http://www.w3.org/TR/2001/REC-SVG-20010904/DTD/svg10.dtd">
<svg version="1.0" xmlns="http://www.w3.org/2000/svg"
 width="250.000000pt" height="250.000000pt" viewBox="0 0 250.000000 250.000000"
 preserveAspectRatio="xMidYMid meet">
<metadata>
Created by potrace 1.11, written by Peter Selinger 2001-2013
</metadata>
<g transform="translate(0.000000,250.000000) scale(0.100000,-0.100000)"
fill="#000000" stroke="none">
<path d="M0 1250 l0 -1250 658 0 659 1 22 30 23 31 -33 -7 c-19 -4 -42 -16
-52 -27 -24 -28 -22 -1 3 37 11 17 20 38 20 48 0 18 -25 24 -35 7 -3 -5 -12
-7 -21 -3 -12 4 -13 15 -8 49 4 30 3 44 -5 44 -6 0 -11 -10 -11 -23 0 -12 -9
-29 -20 -37 -11 -8 -20 -21 -20 -29 0 -11 -3 -12 -11 -4 -11 11 -2 109 17 171
3 12 2 22 -2 22 -16 0 -56 -71 -49 -88 3 -9 1 -49 -6 -89 -9 -57 -15 -71 -24
-63 -24 20 -24 73 1 148 13 40 24 74 24 76 0 2 -10 3 -22 1 -50 -6 -85 -19
-118 -44 -19 -14 -48 -27 -64 -27 -37 -2 -139 -36 -148 -49 -4 -5 -8 -6 -8 -1
0 4 -11 1 -25 -8 -21 -14 -25 -14 -25 -2 0 20 49 65 80 73 67 17 163 73 152
88 -4 6 -29 21 -57 35 -61 30 -121 70 -155 102 -14 13 -33 27 -44 31 -15 6
-18 14 -13 49 l6 41 -38 -59 c-20 -32 -40 -67 -44 -76 -10 -28 -30 -22 -23 7
4 14 4 36 0 50 -5 22 -9 24 -22 13 -8 -7 -28 -31 -44 -52 -43 -60 -33 -22 16
60 25 41 42 74 39 74 -4 0 -30 -25 -59 -55 -53 -55 -64 -63 -64 -46 0 19 92
98 153 130 l64 34 41 -19 c22 -10 46 -30 52 -42 7 -17 15 -22 28 -17 25 11 39
9 137 -25 152 -53 345 -94 330 -71 -7 13 -18 94 -16 129 1 19 -3 22 -27 17
-15 -2 -32 -1 -39 3 -19 12 -68 127 -96 223 -40 138 -49 150 -189 253 -42 31
-94 71 -114 90 l-38 35 25 20 c13 11 30 20 37 21 6 0 12 5 12 10 0 6 5 10 11
10 5 0 7 -4 4 -10 -10 -16 11 -12 25 5 8 10 9 15 2 15 -6 0 -9 6 -6 14 8 22
46 16 41 -6 -3 -10 -1 -18 3 -18 5 0 11 -8 13 -17 4 -17 5 -17 6 0 1 11 6 15
13 11 7 -4 8 -3 4 5 -4 6 -12 9 -17 6 -5 -4 -9 6 -8 22 0 27 1 27 9 6 5 -13
14 -23 20 -23 5 0 10 -11 10 -25 0 -25 15 -29 35 -10 18 17 25 43 12 48 -7 2
-9 7 -6 11 12 13 34 -6 55 -47 l22 -42 68 1 c38 0 87 4 108 8 39 8 39 8 15 21
-35 21 -38 22 -104 36 -33 7 -52 14 -42 17 10 2 32 -1 49 -7 41 -15 81 -14 98
2 12 10 12 9 2 -4 -10 -14 -9 -18 4 -23 9 -4 19 -4 22 -1 3 3 0 5 -7 5 -7 0
-9 5 -6 10 5 8 11 8 20 0 9 -7 16 -6 24 4 7 8 19 12 26 10 8 -4 23 9 37 31 20
32 27 35 55 30 39 -7 48 13 34 74 -5 22 -5 39 -1 36 5 -3 18 5 29 17 23 24 27
18 10 -14 -8 -14 -8 -23 0 -31 16 -16 13 -31 -3 -18 -8 7 -17 8 -20 3 -3 -6 3
-12 14 -15 11 -3 22 -1 26 4 3 5 22 0 43 -11 21 -10 42 -16 46 -12 3 4 5 0 3
-8 -2 -12 10 -15 67 -16 79 -2 219 -29 253 -50 19 -13 22 -13 22 1 0 8 3 15 6
15 9 0 33 -27 28 -32 -2 -3 3 -11 13 -19 15 -13 16 -12 9 6 -7 19 -6 19 10 3
16 -16 16 -19 0 -51 -23 -50 -20 -60 10 -41 l25 17 -6 -42 c-3 -23 -18 -63
-31 -88 -14 -24 -23 -47 -20 -51 12 -11 45 33 51 66 6 38 25 72 40 72 14 -1
55 -36 55 -49 0 -5 5 -13 12 -17 8 -5 9 -2 5 10 -5 14 -3 15 13 6 44 -24 47
-56 7 -77 -18 -8 -34 -19 -37 -23 -3 -4 -34 -25 -70 -46 -35 -20 -59 -39 -51
-42 14 -5 125 50 156 78 49 43 102 56 144 34 14 -8 20 -14 12 -14 -8 0 -53
-19 -100 -42 -47 -22 -114 -54 -149 -69 l-63 -28 -8 22 c-5 12 -12 37 -16 54
-13 61 -33 28 -26 -42 2 -24 -18 -75 -30 -75 -4 0 -20 -11 -35 -25 -25 -23
-28 -24 -40 -7 -7 9 -14 13 -14 7 0 -5 -4 -4 -9 4 -7 11 -11 9 -21 -10 -7 -13
-24 -36 -38 -52 -21 -22 -23 -27 -9 -27 15 0 16 -4 7 -20 -6 -11 -17 -20 -25
-20 -7 0 -20 -6 -27 -12 -7 -7 -35 -23 -62 -36 -102 -48 -316 -204 -297 -217
6 -3 43 17 83 43 102 68 313 161 320 140 8 -22 48 11 132 107 33 37 35 38 32
15 -1 -14 -5 -30 -7 -35 -3 -6 -11 -29 -19 -52 -12 -39 -85 -123 -108 -123 -5
0 -15 -7 -22 -15 -7 -9 -15 -14 -17 -11 -4 4 -71 -25 -122 -53 -19 -10 -21
-15 -10 -22 8 -5 26 -9 42 -9 15 0 27 -5 27 -11 0 -6 6 -9 13 -6 7 2 16 -13
22 -42 10 -47 39 -67 56 -39 7 11 9 11 9 -1 0 -10 3 -11 14 -2 11 9 15 9 18
-1 5 -13 -47 -68 -63 -68 -13 0 -11 -14 3 -28 16 -16 14 -16 -82 13 -99 30
-91 29 -84 10 4 -8 16 -15 28 -15 17 0 18 -2 6 -10 -12 -8 -11 -11 8 -16 13
-4 21 -12 18 -19 -9 -25 21 -146 42 -168 12 -13 22 -29 22 -35 0 -8 23 -12 69
-12 61 0 70 3 76 20 4 11 11 18 16 15 5 -4 9 -2 9 4 0 13 -40 104 -48 111 -4
3 -20 20 -35 39 l-28 34 29 12 c24 11 30 20 35 56 3 24 17 69 30 99 21 45 34
61 78 87 30 18 70 39 89 47 19 8 67 32 105 54 78 44 147 62 235 62 32 0 71 5
85 12 25 11 25 13 25 125 0 122 2 119 -52 81 -26 -18 -87 -23 -121 -9 -16 6
-8 14 42 45 34 20 61 44 61 52 0 20 -9 18 -85 -22 -59 -31 -211 -71 -223 -59
-7 7 42 27 133 54 51 16 103 36 116 45 24 17 24 17 -16 11 -65 -11 -176 -45
-232 -72 -45 -21 -56 -22 -75 -12 -22 12 -21 13 20 21 24 4 95 34 157 68 120
64 149 71 172 43 8 -10 11 -12 7 -4 -5 10 1 12 27 6 19 -4 36 -7 39 -7 30 -1
30 2 30 742 l0 740 -1250 0 -1250 0 0 -1250z m1486 335 c17 -13 16 -14 -13 -4
-34 11 -42 19 -20 19 7 0 22 -7 33 -15z m-29 -37 c-3 -8 -6 -5 -6 6 -1 11 2
17 5 13 3 -3 4 -12 1 -19z m-469 -47 c11 -7 11 -9 0 -13 -7 -3 -19 1 -26 8
-10 11 -10 14 0 14 7 0 19 -4 26 -9z m675 -98 c-7 -2 -21 -2 -30 0 -10 3 -4 5
12 5 17 0 24 -2 18 -5z m-578 -42 c-3 -6 -14 -11 -23 -11 -15 1 -15 2 2 15 21
16 32 13 21 -4z m-344 -85 c10 6 10 3 -1 -12 -8 -10 -19 -22 -25 -26 -10 -8 0
-17 124 -113 52 -40 68 -59 77 -92 7 -23 31 -72 53 -110 53 -90 98 -197 106
-256 7 -47 8 -49 36 -43 16 3 29 2 29 -2 0 -4 -12 -9 -27 -10 -15 -1 -37 -9
-49 -17 -31 -20 -31 -20 -37 15 -5 20 -11 28 -21 24 -12 -4 -13 1 -6 32 9 41
6 52 -22 72 -10 8 -18 23 -17 35 6 72 -24 96 -122 102 -51 3 -57 9 -56 57 1
67 -13 135 -28 148 -8 7 -15 17 -15 22 0 5 -9 21 -20 35 -11 14 -20 23 -20 19
0 -3 -11 4 -25 16 -19 16 -23 27 -18 47 7 30 32 52 50 46 7 -2 10 2 7 13 -5
13 -4 14 4 3 6 -8 15 -10 23 -5z m-116 -184 c-5 -6 -54 51 -55 63 0 6 13 -6
30 -25 16 -19 27 -36 25 -38z m1615 14 c0 -11 -19 -15 -25 -6 -3 5 1 10 9 10
9 0 16 -2 16 -4z m-1606 -29 c2 2 9 -19 15 -48 7 -29 17 -59 24 -68 10 -12 9
-14 -5 -8 -10 3 -18 2 -18 -3 0 -5 8 -14 18 -19 9 -6 13 -11 9 -11 -5 0 -1 -7
7 -16 21 -20 21 -58 1 -50 -9 3 -15 0 -15 -10 0 -10 6 -14 15 -10 10 4 15 -1
15 -14 0 -11 -3 -19 -7 -19 -21 3 -34 -4 -72 -41 -22 -22 -41 -42 -41 -45 0
-11 26 1 45 21 25 25 62 36 72 22 3 -6 7 -26 9 -45 3 -29 1 -33 -15 -28 -26 8
-88 -15 -146 -55 -49 -34 -50 -34 -28 -6 20 25 21 30 8 43 -8 8 -15 17 -15 19
0 3 23 27 52 53 51 47 57 71 19 71 -25 0 -114 47 -103 54 6 3 22 2 37 -4 36
-14 45 -13 45 5 0 8 -6 15 -12 15 -8 0 -13 14 -14 34 0 29 2 33 20 28 12 -3
26 -9 33 -14 6 -5 25 -13 42 -18 28 -8 30 -7 21 10 -10 18 -78 70 -110 83 -8
4 -1 4 16 1 22 -3 35 0 45 12 9 12 10 15 2 10 -9 -5 -13 0 -13 14 0 11 -7 23
-15 26 -29 12 -15 22 19 14 19 -4 37 -6 40 -3z m-44 -281 c0 -3 -4 -8 -10 -11
-5 -3 -10 -1 -10 4 0 6 5 11 10 11 6 0 10 -2 10 -4z m1870 -6 c0 24 13 1 16
-30 5 -40 -7 -38 -27 6 -13 26 -13 32 -3 23 11 -9 14 -8 14 1z m-1640 -41 c0
-6 -4 -7 -10 -4 -5 3 -10 11 -10 16 0 6 5 7 10 4 6 -3 10 -11 10 -16z m890
-571 c0 -5 -4 -7 -9 -4 -5 4 -12 0 -14 -6 -3 -7 -6 0 -6 16 -1 24 1 27 14 16
8 -7 15 -17 15 -22z"/>
<path d="M672 1229 c2 -6 8 -10 13 -10 5 0 11 4 13 10 2 6 -4 11 -13 11 -9 0
-15 -5 -13 -11z"/>
<path d="M1040 640 c0 -5 5 -10 11 -10 5 0 7 5 4 10 -3 6 -8 10 -11 10 -2 0
-4 -4 -4 -10z"/>
<path d="M1465 1370 c-7 -32 2 -108 15 -125 4 -5 11 -52 15 -104 4 -52 10
-103 15 -115 7 -19 8 -19 15 9 4 17 15 42 23 57 13 22 13 37 3 99 -6 40 -16
78 -20 83 -5 6 -17 37 -27 69 -10 31 -21 57 -25 57 -4 0 -10 -14 -14 -30z"/>
<path d="M1634 1319 c14 -11 32 -19 39 -16 6 2 -2 11 -20 20 -43 23 -51 21
-19 -4z"/>
<path d="M1383 1278 c-41 -43 -70 -88 -57 -88 4 0 31 18 61 40 39 30 53 47 53
65 0 35 -10 32 -57 -17z"/>
<path d="M1705 1180 c-21 -8 -41 -30 -62 -68 -16 -27 -17 -43 -2 -22 9 12 10
12 5 -3 -3 -10 -6 -23 -6 -28 0 -5 -8 -9 -17 -9 -14 0 -15 2 -4 9 10 7 11 13
2 30 -16 29 -27 20 -35 -31 -4 -23 -12 -48 -18 -55 -6 -7 -8 -13 -5 -13 3 0
-1 -12 -8 -27 -10 -19 -11 -29 -4 -34 8 -4 8 -13 0 -28 -7 -13 -17 -19 -24
-14 -7 4 -5 -2 3 -12 8 -10 10 -16 4 -12 -7 4 -15 0 -18 -9 -4 -10 -2 -13 6
-8 6 4 -22 -38 -63 -92 -41 -55 -79 -108 -85 -119 -6 -11 -25 -46 -42 -77 -32
-56 -42 -95 -22 -83 6 4 17 23 26 43 16 41 41 79 124 192 30 42 84 127 120
190 l65 115 67 1 c38 1 68 -3 68 -8 0 -5 6 -8 12 -6 7 3 18 0 26 -6 33 -27 38
-31 49 -33 6 -1 14 4 17 13 3 9 2 12 -4 9 -16 -10 -24 26 -12 46 7 10 12 36
12 58 0 31 -6 44 -26 60 -27 22 -49 27 -57 14 -2 -5 -3 -3 -1 4 5 20 -54 29
-91 13z m-65 -144 c0 -2 -7 -7 -16 -10 -8 -3 -12 -2 -9 4 6 10 25 14 25 6z"/>
<path d="M2081 1183 c0 -4 4 -17 9 -28 8 -19 9 -19 9 2 1 12 -3 25 -9 28 -5 3
-10 3 -9 -2z"/>
<path d="M2041 1075 c-51 -67 -50 -97 1 -34 32 39 57 89 45 89 -3 0 -23 -25
-46 -55z"/>
<path d="M2116 1114 c-5 -14 -4 -15 9 -4 17 14 19 20 6 20 -5 0 -12 -7 -15
-16z"/>
<path d="M1140 1082 c0 -5 14 -7 30 -4 17 2 30 6 30 8 0 2 -13 4 -30 4 -16 0
-30 -4 -30 -8z"/>
<path d="M2477 960 c-19 -22 -22 -35 -7 -25 10 6 34 45 28 45 -2 0 -11 -9 -21
-20z"/>
<path d="M1858 943 c7 -3 16 -2 19 1 4 3 -2 6 -13 5 -11 0 -14 -3 -6 -6z"/>
<path d="M1820 916 c0 -10 28 -13 41 -5 10 6 7 9 -13 9 -16 0 -28 -2 -28 -4z"/>
<path d="M1745 850 c-3 -5 -1 -10 4 -10 6 0 11 5 11 10 0 6 -2 10 -4 10 -3 0
-8 -4 -11 -10z"/>
<path d="M1250 843 c0 -4 5 -15 10 -23 8 -13 10 -13 10 2 0 9 -4 20 -10 23 -5
3 -10 3 -10 -2z"/>
<path d="M1386 755 c-23 -17 -13 -34 11 -19 19 12 29 34 16 34 -4 0 -17 -7
-27 -15z"/>
<path d="M1378 683 c7 -3 16 -2 19 1 4 3 -2 6 -13 5 -11 0 -14 -3 -6 -6z"/>
<path d="M676 635 c4 -8 10 -12 15 -9 11 6 2 24 -11 24 -5 0 -7 -7 -4 -15z"/>
<path d="M1436 434 c-11 -28 -6 -42 16 -47 30 -8 33 -3 18 33 -14 33 -25 38
-34 14z"/>
<path d="M1975 240 c-8 -13 20 -24 41 -16 20 8 9 26 -16 26 -10 0 -22 -5 -25
-10z"/>
<path d="M2058 233 c7 -3 16 -2 19 1 4 3 -2 6 -13 5 -11 0 -14 -3 -6 -6z"/>
<path d="M2220 230 c0 -5 7 -7 15 -4 8 4 15 8 15 10 0 2 -7 4 -15 4 -8 0 -15
-4 -15 -10z"/>
<path d="M2315 231 c-3 -5 0 -13 6 -17 6 -3 15 0 20 7 7 11 11 10 23 -6 9 -11
16 -15 16 -9 0 26 -51 47 -65 25z"/>
<path d="M2215 200 c-3 -5 -1 -10 4 -10 6 0 11 5 11 10 0 6 -2 10 -4 10 -3 0
-8 -4 -11 -10z"/>
</g>
</svg>
