<svg id="Layer_1" data-name="Layer 1" xmlns="http://www.w3.org/2000/svg" viewBox="0 0 279.96 279.34"><defs><style>.cls-1{fill:#db3444;}</style></defs><title>eagle1</title><g id="l-leg"><path class="cls-1" d="M91,232.74S73,260.8,91,265l-10.75,7.76s-7.78-10.39-15.62-10.39c0,0,10.25-10.39,18.53-30.69Z" transform="translate(-10.02 -10.66)"/></g><g id="l-foot"><path class="cls-1" d="M69.6,289.94s10.24,1.55,10.24-11.46c0,0-7.33-5.74-8.28-5.2,0,0-27.33-22.87-36.06,3.11,0,0-2,10.92,6.33,12.48,0,0-6.33-15.05,8.28-12.48,0,0,5.83-12.48,17.08,1.55-.06,0,14.56,7.28,2.41,12Z" transform="translate(-10.02 -10.66)"/></g><g id="r-leg"><path class="cls-1" d="M94.46,230.11s16.07-3.64,28.78,6.75c0,0-2-27.53-15.62-25,0,0-2.47-1-13.16,18.21Z" transform="translate(-10.02 -10.66)"/></g><g id="r-foot"><path class="cls-1" d="M95.91,234.29s-4.36,3.64-3.92,8.3c0,0-13.66,12.48,4.37,20.3,0,0-8.29-15,3.42-16.66,0,0,14.16,3.64,14.16,11.47-1.4,1.49-2.85,2.86-4.36,4.18,0,0,8.79,4.65,13.15-9.86,0,0-11.2-5.19-10.24-15.1,0,0-10.75-3.65-16.58-2.63Z" transform="translate(-10.02 -10.66)"/></g><g id="head"><path class="cls-1" d="M34.94,211.42s-1,15.58,11.7,22.87l-1.45-11.94s25.36-13,38,4.65l9.3.54s8.28-19.76,17.08-20.78c0,0,11.19-2.63,18,28.6A30.76,30.76,0,0,0,152,230.71C152,230.65,93.45,155.76,34.94,211.42Zm18-3.64-8.79,3.64S47.09,200.49,59.8,201L53,207.78Z" transform="translate(-10.02 -10.66)"/></g><g id="l-wing"><path class="cls-1" d="M73.46,84l8.79,2.09s-2-22.87,4.37-23.95c0,0-8.29.54-13.16,21.86Z" transform="translate(-10.02 -10.66)"/><path class="cls-1" d="M62.26,82.44S60.81,61.66,79.34,50.73c0,0-14.17,20.3-7.78,32.24C71.5,82.91,62.26,82.44,62.26,82.44Z" transform="translate(-10.02 -10.66)"/><path class="cls-1" d="M47.65,80.88S41.77,43.44,68.14,32c0,0-10.24,16.12-8.28,22.33l3.41,1.55S56,74.55,58,81.36Z" transform="translate(-10.02 -10.66)"/><path class="cls-1" d="M31.08,79.33S18.37,28.39,52,10.66c0,0-13.67,24.42-6.33,32.78,0,0-9.74,25-3.42,36.43l-11.19-.54Z" transform="translate(-10.02 -10.66)"/><path class="cls-1" d="M16.91,76.17S-6.49,38.73,33,17.41c0,0-5.38,10.92-9.24,12.48,0,0-6.33,36.9,2.91,46.81l-9.74-.53Z" transform="translate(-10.02 -10.66)"/></g><g id="r-wing"><path class="cls-1" d="M250,67.33S273.91,46,250,20c0,0,27.32-3.1,20,19.23,0,0,11.7,9.92-2.91,26.52,0,0-2.91,11.94-17.08,13.49Z" transform="translate(-10.02 -10.66)"/><path class="cls-1" d="M248.54,88.17s34.61-16.66,36.12-52.55c0,0,9.74,6.75-2,21.32,0,0,11.2,17.14-2,28.06,0,0-11.2,17.14-32.2,18.75V88.17Z" transform="translate(-10.02 -10.66)"/><path class="cls-1" d="M246.58,109s33.66-4.66,43.4-27c0,0-8.29,18.21-5.38,21.85,0,0-2.91,13.5-38,15.59V109Z" transform="translate(-10.02 -10.66)"/><path class="cls-1" d="M245.13,123.52s28.78,2.09,42.89-15c0,0,1.45,12.48-19.49,25,0,0-16.07,4.66-23.9-1.07l.5-8.84Z" transform="translate(-10.02 -10.66)"/><path class="cls-1" d="M243.17,136.54s10.75,7.82,32.19,4.18c0,0-16.57,12.48-13.15,14,0,0-19.49.54-19.49-6.21l.45-12Z" transform="translate(-10.02 -10.66)"/><path class="cls-1" d="M241.71,154.21s2,6.75,17.58,5.2c0,0,0,9.85-18,4.66l.44-9.86Z" transform="translate(-10.02 -10.66)"/></g><g id="U"><path class="cls-1" d="M127.6,242.05S152,239,153,235.78c0,0,20,31.17,30.74,22.87,0,0,6.32-.54-19.49-27.53,0,0,11.7-3.64,16.07-9.85,0,0,9.24,10.39,56.05,22.33,0,0-32.2,27.59-78.5,41.62C157.84,285.22,149.05,255.61,127.6,242.05Z" transform="translate(-10.02 -10.66)"/></g><g id="W"><path class="cls-1" d="M115.4,194.22l28.27-28.06s9.75,33.26,20.5,30.69c0,0-.51-18.21-12.21-41.09,0,0,17.53-33.79,41.94-48.9,0,0,1.45,54.1,8.28,44.72a124.34,124.34,0,0,0,2-47.29s4.88,6.75,39-27.59c0,0-11.7,87.36-8.29,97.76,0,0-9.24,6.27-14.16,14.57,0,0-7.34,9.37-13.16,10.92,0,0-4.37-14-23.4-28.6,0,0,3.41,32.25,7.33,36.9,0,0-22,17.68-32.19,19.23,0,.06-22.91-28-43.9-33.26Z" transform="translate(-10.02 -10.66)"/></g><g id="E"><path class="cls-1" d="M74.92,183.83s-20-62.94-61.43-102.47l66.8,8.3,21.45,29.14S73,106.32,71,117.79s33.14,8.3,33.14,8.3l11.71,26S85.61,146.33,89,156.24,118.31,163,118.31,163s4.87,18.21,3.92,21.32l-47.31-.48Z" transform="translate(-10.02 -10.66)"/></g></svg>